# xmcd
#
# Track frame offsets:
#	150
#	15445
#	26577
#	38467
#	48722
#	57990
#	70915
#	81895
#	93037
#	101777
#
# Disc length: 1458 seconds
#
# Revision: 0
# Processed by: cddbd v1.5.1PL0 Copyright (c) Steve Scherf et al.
# Submitted via: dBpowerAMP V4.0
#
DISCID=7505b00a
DTITLE=Enrique Guzman - Tesoros de Coleccion
DYEAR=2004
DGENRE=Ballad
TTITLE0=01 Acompañame
TTITLE1=02 Camino al Cielo
TTITLE2=03 98.6
TTITLE3=04 Alguien a quien amar
TTITLE4=05 Contigo en la playa
TTITLE5=06 No debo decirlo
TTITLE6=07 El sueño imposible
TTITLE7=08  Enseñando Bossa Nova
TTITLE8=09 Ven a mi
TTITLE9=10 La Noche del Sabado
EXTD=egala2000
EXTT0=
EXTT1=
EXTT2=
EXTT3=
EXTT4=
EXTT5=
EXTT6=
EXTT7=
EXTT8=
EXTT9=
PLAYORDER=
